<?xml version="1.0" encoding="UTF-8" standalone="no"?>
<!DOCTYPE svg PUBLIC "-//W3C//DTD SVG 1.1//EN" "http://www.w3.org/Graphics/SVG/1.1/DTD/svg11.dtd">
<svg width="100%" height="100%" viewBox="0 0 3750 375" version="1.1" xmlns="http://www.w3.org/2000/svg" xmlns:xlink="http://www.w3.org/1999/xlink" xml:space="preserve" xmlns:serif="http://www.serif.com/" style="fill-rule:evenodd;clip-rule:evenodd;stroke-linejoin:round;stroke-miterlimit:2;">
    <g>
        <g transform="matrix(1,0,0,1.09982,0,-18.7168)">
            <path d="M3708.51,97.917C3708.51,76.462 3699.99,55.885 3684.82,40.713C3669.64,25.542 3649.07,17.018 3627.61,17.018L122.381,17.018C100.925,17.018 80.348,25.542 65.177,40.713C50.005,55.885 41.482,76.462 41.482,97.917L41.482,277.083C41.482,298.538 50.005,319.115 65.177,334.287C80.348,349.458 100.925,357.982 122.381,357.982L3627.61,357.982C3649.07,357.982 3669.64,349.458 3684.82,334.287C3699.99,319.115 3708.51,298.538 3708.51,277.083L3708.51,97.917Z" style="fill:rgb(15,15,15);"/>
        </g>
        <g transform="matrix(1,0,0,1,590.841,0)">
            <path d="M2815.05,247.568L2814.01,247.568L2814.01,247.561L2813.87,247.56C2760.38,246.882 2717.14,203.236 2717.14,149.57C2717.14,95.484 2761.06,51.573 2815.14,51.573C2858.19,51.573 2894.79,79.389 2907.93,118.001L2922.29,118.001C2939.46,118.001 2955.94,124.824 2968.08,136.969C2980.23,149.115 2987.05,165.587 2987.05,182.764L2987.05,182.805C2987.05,199.981 2980.23,216.454 2968.08,228.599C2955.94,240.745 2939.46,247.568 2922.29,247.568L2881.19,247.568L2869.55,225.728L2922.29,225.728C2933.67,225.728 2944.59,221.206 2952.64,213.156C2960.69,205.107 2965.21,194.189 2965.21,182.805L2965.21,182.764C2965.21,171.38 2960.69,160.462 2952.64,152.412C2944.59,144.363 2933.67,139.84 2922.29,139.84L2899.75,139.84C2894.72,139.84 2890.33,136.397 2889.14,131.504C2881.03,98.179 2850.95,73.412 2815.14,73.412C2773.11,73.412 2738.98,107.538 2738.98,149.57C2738.98,191.274 2772.58,225.195 2814.15,225.722L2814.32,225.728L2826.69,225.728L2815.05,247.568Z" style="fill:white;"/>
        </g>
        <g transform="matrix(1,0,0,1,83.8384,0)">
            <path d="M2815.05,247.568L2814.01,247.568L2814.01,247.561L2813.87,247.56C2760.38,246.882 2717.14,203.236 2717.14,149.57C2717.14,95.484 2761.06,51.573 2815.14,51.573C2858.19,51.573 2894.79,79.389 2907.93,118.001L2922.29,118.001C2939.46,118.001 2955.94,124.824 2968.08,136.969C2980.23,149.115 2987.05,165.587 2987.05,182.764L2987.05,182.805C2987.05,199.981 2980.23,216.454 2968.08,228.599C2955.94,240.745 2939.46,247.568 2922.29,247.568L2881.19,247.568L2869.55,225.728L2922.29,225.728C2933.67,225.728 2944.59,221.206 2952.64,213.156C2960.69,205.107 2965.21,194.189 2965.21,182.805L2965.21,182.764C2965.21,171.38 2960.69,160.462 2952.64,152.412C2944.59,144.363 2933.67,139.84 2922.29,139.84L2899.75,139.84C2894.72,139.84 2890.33,136.397 2889.14,131.504C2881.03,98.179 2850.95,73.412 2815.14,73.412C2773.11,73.412 2738.98,107.538 2738.98,149.57C2738.98,191.274 2772.58,225.195 2814.15,225.722L2814.32,225.728L2826.69,225.728L2815.05,247.568Z" style="fill:white;"/>
        </g>
        <g transform="matrix(0.793309,0,0,0.793309,535.081,52.6087)">
            <path d="M2310.17,214.2C2310.17,214.2 2339.2,249.322 2338.87,265.723C2338.55,282.125 2324.97,295.176 2308.57,294.849C2292.16,294.523 2279.11,280.943 2279.44,264.542C2279.77,248.14 2310.17,214.2 2310.17,214.2Z" style="fill:rgb(68,211,255);"/>
        </g>
        <g transform="matrix(1,0,0,1,1130.07,0)">
            <path d="M2310.17,214.2C2310.17,214.2 2339.2,249.322 2338.87,265.723C2338.55,282.125 2324.97,295.176 2308.57,294.849C2292.16,294.523 2279.11,280.943 2279.44,264.542C2279.77,248.14 2310.17,214.2 2310.17,214.2Z" style="fill:rgb(68,211,255);"/>
            <g transform="matrix(0.544939,0,0,0.544939,1050.81,183.081)">
                <path d="M2310.17,214.2C2310.17,214.2 2339.2,249.322 2338.87,265.723C2338.55,282.125 2324.97,295.176 2308.57,294.849C2292.16,294.523 2279.11,280.943 2279.44,264.542C2279.77,248.14 2310.17,214.2 2310.17,214.2Z" style="fill:rgb(68,211,255);"/>
            </g>
        </g>
        <g transform="matrix(1,0,0,1,623.067,0)">
            <path d="M2310.17,214.2C2310.17,214.2 2339.2,249.322 2338.87,265.723C2338.55,282.125 2324.97,295.176 2308.57,294.849C2292.16,294.523 2279.11,280.943 2279.44,264.542C2279.77,248.14 2310.17,214.2 2310.17,214.2Z" style="fill:rgb(68,211,255);"/>
        </g>
        <g transform="matrix(1,0,0,1,1130.07,0)">
            <path d="M2263.77,267.928C2263.77,267.928 2283.15,291.38 2282.94,302.331C2282.72,313.283 2273.65,321.997 2262.7,321.779C2251.75,321.561 2243.03,312.493 2243.25,301.542C2243.47,290.59 2263.77,267.928 2263.77,267.928Z" style="fill:white;"/>
        </g>
        <g transform="matrix(1,0,0,1,623.067,0)">
            <path d="M2263.77,267.928C2263.77,267.928 2283.15,291.38 2282.94,302.331C2282.72,313.283 2273.65,321.997 2262.7,321.779C2251.75,321.561 2243.03,312.493 2243.25,301.542C2243.47,290.59 2263.77,267.928 2263.77,267.928Z" style="fill:white;"/>
        </g>
        <g transform="matrix(1,0,0,1,1130.07,0)">
            <path d="M2356.09,267.928C2356.09,267.928 2375.47,291.38 2375.26,302.331C2375.04,313.283 2365.97,321.997 2355.02,321.779C2344.07,321.561 2335.35,312.493 2335.57,301.542C2335.79,290.59 2356.09,267.928 2356.09,267.928Z" style="fill:rgb(174,237,255);"/>
        </g>
        <g transform="matrix(1,0,0,1,623.067,0)">
            <path d="M2356.09,267.928C2356.09,267.928 2375.47,291.38 2375.26,302.331C2375.04,313.283 2365.97,321.997 2355.02,321.779C2344.07,321.561 2335.35,312.493 2335.57,301.542C2335.79,290.59 2356.09,267.928 2356.09,267.928Z" style="fill:rgb(174,237,255);"/>
        </g>
        <g transform="matrix(1,0,0,1,588.181,0)">
            <path d="M1744.2,247.568L1743.16,247.568L1743.16,247.561L1743.02,247.56C1689.53,246.882 1646.29,203.236 1646.29,149.57C1646.29,95.484 1690.2,51.573 1744.29,51.573C1787.34,51.573 1823.93,79.389 1837.08,118.001L1851.44,118.001C1868.61,118.001 1885.09,124.824 1897.23,136.969C1909.38,149.115 1916.2,165.587 1916.2,182.764L1916.2,182.805C1916.2,199.981 1909.38,216.454 1897.23,228.599C1885.09,240.745 1868.61,247.568 1851.44,247.568L1810.34,247.568L1798.69,225.728L1851.44,225.728C1862.82,225.728 1873.74,221.206 1881.79,213.156C1889.84,205.107 1894.36,194.189 1894.36,182.805L1894.36,182.764C1894.36,171.38 1889.84,160.462 1881.79,152.412C1873.74,144.363 1862.82,139.84 1851.44,139.84L1828.9,139.84C1823.87,139.84 1819.48,136.397 1818.29,131.504C1810.18,98.179 1780.1,73.412 1744.29,73.412C1702.26,73.412 1668.13,107.538 1668.13,149.57C1668.13,191.274 1701.73,225.195 1743.3,225.722L1743.47,225.728L1755.84,225.728L1744.2,247.568Z" style="fill:white;"/>
        </g>
        <g transform="matrix(1,0,0,1,-274.936,-20)">
            <path d="M638.514,299.637L638.521,299.645L758.885,299.645C777.979,299.645 796.291,292.06 809.793,278.559C823.294,265.057 830.879,246.745 830.879,227.651L830.879,227.605C830.879,208.511 823.294,190.199 809.793,176.698C796.291,163.196 777.979,155.611 758.885,155.611L742.926,155.611C728.312,112.688 687.628,81.766 639.776,81.766C579.651,81.766 530.837,130.58 530.837,190.706C530.837,250.363 578.895,298.883 638.367,299.636L638.514,299.637ZM638.86,275.367L638.675,275.36C592.458,274.775 555.115,237.066 555.115,190.706C555.115,143.98 593.051,106.044 639.776,106.044C679.586,106.044 713.017,133.577 722.039,170.623C723.364,176.061 728.236,179.889 733.834,179.889L758.885,179.889C771.541,179.89 783.677,184.917 792.626,193.865C801.574,202.813 806.601,214.95 806.601,227.605L806.601,227.651C806.601,240.306 801.574,252.443 792.626,261.391C783.677,270.34 771.541,275.367 758.886,275.367L638.86,275.367Z" style="fill:white;"/>
        </g>
        <g transform="matrix(1,0,0,1,-274.936,-20)">
            <circle cx="747.505" cy="148.396" r="58.487" style="fill:rgb(255,201,0);"/>
        </g>
        <g transform="matrix(1.57967,0,0,1.57967,-217.302,-66.9161)">
            <circle cx="747.505" cy="148.396" r="58.487" style="fill:rgb(255,201,0);"/>
        </g>
        <g transform="matrix(1.57967,0,0,1.57967,175.016,-66.9161)">
            <circle cx="747.505" cy="148.396" r="58.487" style="fill:rgb(255,201,0);"/>
        </g>
        <g transform="matrix(1.57967,0,0,1.57967,565.335,-66.9161)">
            <circle cx="747.505" cy="148.396" r="58.487" style="fill:rgb(255,201,0);"/>
        </g>
        <g transform="matrix(0.708864,0,0,0.868659,-4.02838,-0.399322)">
            <path d="M1187.89,170.509L1364.91,170.509C1372.27,170.509 1378.24,165.635 1378.24,159.632C1378.24,153.629 1372.27,148.755 1364.91,148.755L1187.89,148.755C1180.53,148.755 1174.56,153.629 1174.56,159.632C1174.56,165.635 1180.53,170.509 1187.89,170.509Z" style="fill:rgb(213,152,1);"/>
        </g>
        <g transform="matrix(0.708864,0,0,0.868659,388.289,-0.399322)">
            <path d="M1187.89,170.509L1364.91,170.509C1372.27,170.509 1378.24,165.635 1378.24,159.632C1378.24,153.629 1372.27,148.755 1364.91,148.755L1187.89,148.755C1180.53,148.755 1174.56,153.629 1174.56,159.632C1174.56,165.635 1180.53,170.509 1187.89,170.509Z" style="fill:rgb(119,119,119);"/>
        </g>
        <g transform="matrix(0.708864,0,0,0.868659,778.608,-0.399322)">
            <path d="M1187.89,170.509L1364.91,170.509C1372.27,170.509 1378.24,165.635 1378.24,159.632C1378.24,153.629 1372.27,148.755 1364.91,148.755L1187.89,148.755C1180.53,148.755 1174.56,153.629 1174.56,159.632C1174.56,165.635 1180.53,170.509 1187.89,170.509Z" style="fill:rgb(248,248,248);"/>
        </g>
        <g transform="matrix(1.23078,0,0,0.868659,-624.004,55.015)">
            <path d="M1187.89,170.509L1364.91,170.509C1369.15,170.509 1372.59,165.635 1372.59,159.632C1372.59,153.629 1369.15,148.755 1364.91,148.755L1187.89,148.755C1183.65,148.755 1180.21,153.629 1180.21,159.632C1180.21,165.635 1183.65,170.509 1187.89,170.509Z" style="fill:rgb(213,152,1);"/>
        </g>
        <g transform="matrix(1.23078,0,0,0.868659,-231.687,55.015)">
            <path d="M1187.89,170.509L1364.91,170.509C1369.15,170.509 1372.59,165.635 1372.59,159.632C1372.59,153.629 1369.15,148.755 1364.91,148.755L1187.89,148.755C1183.65,148.755 1180.21,153.629 1180.21,159.632C1180.21,165.635 1183.65,170.509 1187.89,170.509Z" style="fill:rgb(119,119,119);"/>
        </g>
        <g transform="matrix(1.23078,0,0,0.868659,158.633,55.015)">
            <path d="M1187.89,170.509L1364.91,170.509C1369.15,170.509 1372.59,165.635 1372.59,159.632C1372.59,153.629 1369.15,148.755 1364.91,148.755L1187.89,148.755C1183.65,148.755 1180.21,153.629 1180.21,159.632C1180.21,165.635 1183.65,170.509 1187.89,170.509Z" style="fill:rgb(248,248,248);"/>
        </g>
        <g transform="matrix(0.845052,0,0,2.19186,-70.5086,-130.411)">
            <path d="M1187.89,163.943L1364.91,163.943C1371.08,163.943 1376.09,162.011 1376.09,159.632C1376.09,157.253 1371.08,155.321 1364.91,155.321L1187.89,155.321C1181.72,155.321 1176.71,157.253 1176.71,159.632C1176.71,162.011 1181.72,163.943 1187.89,163.943Z" style="fill:rgb(213,152,1);"/>
        </g>
        <g transform="matrix(0.845052,0,0,2.19186,321.809,-130.411)">
            <path d="M1187.89,163.943L1364.91,163.943C1371.08,163.943 1376.09,162.011 1376.09,159.632C1376.09,157.253 1371.08,155.321 1364.91,155.321L1187.89,155.321C1181.72,155.321 1176.71,157.253 1176.71,159.632C1176.71,162.011 1181.72,163.943 1187.89,163.943Z" style="fill:rgb(119,119,119);"/>
        </g>
        <g transform="matrix(0.845052,0,0,2.19186,712.128,-130.411)">
            <path d="M1187.89,163.943L1364.91,163.943C1371.08,163.943 1376.09,162.011 1376.09,159.632C1376.09,157.253 1371.08,155.321 1364.91,155.321L1187.89,155.321C1181.72,155.321 1176.71,157.253 1176.71,159.632C1176.71,162.011 1181.72,163.943 1187.89,163.943Z" style="fill:rgb(248,248,248);"/>
        </g>
        <g transform="matrix(0.708864,0,0,2.19186,-4.02838,-103.825)">
            <path d="M1187.89,163.943L1364.91,163.943C1372.27,163.943 1378.24,162.011 1378.24,159.632C1378.24,157.253 1372.27,155.321 1364.91,155.321L1187.89,155.321C1180.53,155.321 1174.56,157.253 1174.56,159.632C1174.56,162.011 1180.53,163.943 1187.89,163.943Z" style="fill:rgb(213,152,1);"/>
        </g>
        <g transform="matrix(0.708864,0,0,2.19186,388.289,-103.825)">
            <path d="M1187.89,163.943L1364.91,163.943C1372.27,163.943 1378.24,162.011 1378.24,159.632C1378.24,157.253 1372.27,155.321 1364.91,155.321L1187.89,155.321C1180.53,155.321 1174.56,157.253 1174.56,159.632C1174.56,162.011 1180.53,163.943 1187.89,163.943Z" style="fill:rgb(119,119,119);"/>
        </g>
        <g transform="matrix(0.708864,0,0,2.19186,778.608,-103.825)">
            <path d="M1187.89,163.943L1364.91,163.943C1372.27,163.943 1378.24,162.011 1378.24,159.632C1378.24,157.253 1372.27,155.321 1364.91,155.321L1187.89,155.321C1180.53,155.321 1174.56,157.253 1174.56,159.632C1174.56,162.011 1180.53,163.943 1187.89,163.943Z" style="fill:rgb(248,248,248);"/>
        </g>
        <g transform="matrix(0.251979,0,0,2.19186,684.686,-103.825)">
            <path d="M1187.89,163.943L1364.91,163.943C1385.6,163.943 1402.4,162.011 1402.4,159.632C1402.4,157.253 1385.6,155.321 1364.91,155.321L1187.89,155.321C1167.19,155.321 1150.39,157.253 1150.39,159.632C1150.39,162.011 1167.19,163.943 1187.89,163.943Z" style="fill:rgb(213,152,1);"/>
        </g>
        <g transform="matrix(0.251979,0,0,2.19186,1077,-103.825)">
            <path d="M1187.89,163.943L1364.91,163.943C1385.6,163.943 1402.4,162.011 1402.4,159.632C1402.4,157.253 1385.6,155.321 1364.91,155.321L1187.89,155.321C1167.19,155.321 1150.39,157.253 1150.39,159.632C1150.39,162.011 1167.19,163.943 1187.89,163.943Z" style="fill:rgb(119,119,119);"/>
        </g>
        <g transform="matrix(0.251979,0,0,2.19186,1467.32,-103.825)">
            <path d="M1187.89,163.943L1364.91,163.943C1385.6,163.943 1402.4,162.011 1402.4,159.632C1402.4,157.253 1385.6,155.321 1364.91,155.321L1187.89,155.321C1167.19,155.321 1150.39,157.253 1150.39,159.632C1150.39,162.011 1167.19,163.943 1187.89,163.943Z" style="fill:rgb(248,248,248);"/>
        </g>
        <g transform="matrix(0.521914,0,0,0.868659,251.141,28.8343)">
            <path d="M1187.89,170.509L1364.91,170.509C1374.9,170.509 1383.01,165.635 1383.01,159.632C1383.01,153.629 1374.9,148.755 1364.91,148.755L1187.89,148.755C1177.9,148.755 1169.79,153.629 1169.79,159.632C1169.79,165.635 1177.9,170.509 1187.89,170.509Z" style="fill:rgb(213,152,1);"/>
        </g>
        <g transform="matrix(0.521914,0,0,0.868659,643.458,28.8343)">
            <path d="M1187.89,170.509L1364.91,170.509C1374.9,170.509 1383.01,165.635 1383.01,159.632C1383.01,153.629 1374.9,148.755 1364.91,148.755L1187.89,148.755C1177.9,148.755 1169.79,153.629 1169.79,159.632C1169.79,165.635 1177.9,170.509 1187.89,170.509Z" style="fill:rgb(119,119,119);"/>
        </g>
        <g transform="matrix(0.521914,0,0,0.868659,1033.78,28.8343)">
            <path d="M1187.89,170.509L1364.91,170.509C1374.9,170.509 1383.01,165.635 1383.01,159.632C1383.01,153.629 1374.9,148.755 1364.91,148.755L1187.89,148.755C1177.9,148.755 1169.79,153.629 1169.79,159.632C1169.79,165.635 1177.9,170.509 1187.89,170.509Z" style="fill:rgb(248,248,248);"/>
        </g>
        <g transform="matrix(0.187455,0,0,0.868659,769.118,28.8343)">
            <path d="M1187.89,170.509L1364.91,170.509C1392.73,170.509 1415.31,165.635 1415.31,159.632C1415.31,153.629 1392.73,148.755 1364.91,148.755L1187.89,148.755C1160.07,148.755 1137.49,153.629 1137.49,159.632C1137.49,165.635 1160.07,170.509 1187.89,170.509Z" style="fill:rgb(213,152,1);"/>
        </g>
        <g transform="matrix(0.187455,0,0,0.868659,1161.44,28.8343)">
            <path d="M1187.89,170.509L1364.91,170.509C1392.73,170.509 1415.31,165.635 1415.31,159.632C1415.31,153.629 1392.73,148.755 1364.91,148.755L1187.89,148.755C1160.07,148.755 1137.49,153.629 1137.49,159.632C1137.49,165.635 1160.07,170.509 1187.89,170.509Z" style="fill:rgb(119,119,119);"/>
        </g>
        <g transform="matrix(0.187455,0,0,0.868659,1551.75,28.8343)">
            <path d="M1187.89,170.509L1364.91,170.509C1392.73,170.509 1415.31,165.635 1415.31,159.632C1415.31,153.629 1392.73,148.755 1364.91,148.755L1187.89,148.755C1160.07,148.755 1137.49,153.629 1137.49,159.632C1137.49,165.635 1160.07,170.509 1187.89,170.509Z" style="fill:rgb(248,248,248);"/>
        </g>
        <g transform="matrix(1,0,0,1,519.31,0)">
            <path d="M1455.79,77.825L1455.79,294.855C1455.79,299.493 1459.56,303.258 1464.19,303.258C1468.83,303.258 1472.6,299.493 1472.6,294.855L1472.6,77.825C1472.6,73.188 1468.83,69.423 1464.19,69.423C1459.56,69.423 1455.79,73.188 1455.79,77.825Z" style="fill:white;fill-opacity:0.12;"/>
        </g>
        <g transform="matrix(1,0,0,1,-770.317,0)">
            <path d="M1455.79,77.825L1455.79,294.855C1455.79,299.493 1459.56,303.258 1464.19,303.258C1468.83,303.258 1472.6,299.493 1472.6,294.855L1472.6,77.825C1472.6,73.188 1468.83,69.423 1464.19,69.423C1459.56,69.423 1455.79,73.188 1455.79,77.825Z" style="fill:white;fill-opacity:0.12;"/>
        </g>
    </g>
</svg>
